<?xml version="1.0" encoding="UTF-8"?>
<!DOCTYPE svg PUBLIC "-//W3C//DTD SVG 1.1//EN" "http://www.w3.org/Graphics/SVG/1.1/DTD/svg11.dtd">
<!-- Creator: CorelDRAW 2017 -->
<svg xmlns="http://www.w3.org/2000/svg" xml:space="preserve" width="2.66642in" height="2.66642in" version="1.1" style="shape-rendering:geometricPrecision; text-rendering:geometricPrecision; image-rendering:optimizeQuality; fill-rule:evenodd; clip-rule:evenodd"
viewBox="0 0 2461 2461"
 xmlns:xlink="http://www.w3.org/1999/xlink">
 <defs>
  <style type="text/css">
   <![CDATA[
    .fil6 {fill:none}
    .fil5 {fill:#14B9A1}
    .fil4 {fill:#663300}
    .fil1 {fill:#F7931C}
    .fil3 {fill:#FECB4C}
    .fil0 {fill:white}
    .fil2 {fill:white;fill-rule:nonzero}
   ]]>
  </style>
 </defs>
 <g id="Layer_x0020_1">
  <metadata id="CorelCorpID_0Corel-Layer"/>
  <g id="_2382734204176">
   <g>
    <rect class="fil0" x="375" y="342" width="1711" height="882" rx="210" ry="155"/>
    <rect class="fil1" x="435" y="395" width="1592" height="777" rx="195" ry="137"/>
    <path class="fil2" d="M666 547l96 0 16 18 -20 17 -96 0 -16 -17 19 -18zm-23 263l96 0 16 17 -19 18 -96 0 -16 -18 20 -17zm120 -225l19 -17 16 17 -9 94 -19 17 -16 -17 9 -94zm-139 0l20 -17 16 17 -8 94 -20 17 -16 -17 8 -94zm127 129l19 -18 16 18 -8 93 -20 17 -16 -17 9 -93zm-139 0l20 -18 16 18 -9 93 -20 17 -16 -17 8 -93z"/>
    <path id="1" class="fil2" d="M967 547l96 0 16 18 -20 17 -96 0 -16 -17 19 -18zm-23 263l96 0 16 17 -19 18 -96 0 -16 -18 20 -17zm120 -225l19 -17 16 17 -9 94 -19 17 -16 -17 9 -94zm-139 0l20 -17 16 17 -8 94 -20 17 -16 -17 8 -94zm127 129l19 -18 16 18 -8 93 -20 17 -16 -17 9 -93zm-139 0l20 -18 16 18 -9 93 -20 17 -16 -17 8 -93z"/>
    <path id="2" class="fil2" d="M1230 615l35 0 -2 34 -35 0 2 -34zm-12 132l36 0 -3 34 -36 0 3 -34z"/>
    <path id="3" class="fil2" d="M1423 547l96 0 16 18 -20 17 -96 0 -16 -17 19 -18zm-23 263l96 0 16 17 -19 18 -96 0 -16 -18 20 -17zm120 -225l19 -17 16 17 -9 94 -19 17 -16 -17 9 -94zm-139 0l20 -17 16 17 -8 94 -20 17 -16 -17 8 -94zm127 129l19 -18 16 18 -8 93 -20 17 -16 -17 9 -93zm-139 0l20 -18 16 18 -9 93 -20 17 -16 -17 8 -93z"/>
    <path id="4" class="fil2" d="M1724 547l96 0 16 18 -20 17 -96 0 -16 -17 19 -18zm-23 263l96 0 16 17 -19 18 -96 0 -16 -18 20 -17zm120 -225l19 -17 16 17 -9 94 -19 17 -16 -17 9 -94zm-139 0l20 -17 16 17 -8 94 -20 17 -16 -17 8 -94zm127 129l19 -18 16 18 -8 93 -20 17 -16 -17 9 -93zm-139 0l20 -18 16 18 -9 93 -20 17 -16 -17 8 -93z"/>
    <circle class="fil3" cx="1231" cy="1540" r="549"/>
    <path class="fil2" d="M1231 961c160,0 305,65 409,170 105,105 170,250 170,409 0,160 -65,305 -170,409 -105,105 -250,170 -409,170 -160,0 -305,-65 -409,-170 -105,-105 -170,-250 -170,-409 0,-160 65,-305 170,-409 105,-105 250,-170 409,-170zm368 211c-94,-94 -224,-152 -368,-152 -144,0 -274,58 -368,152 -94,94 -152,224 -152,368 0,144 58,274 152,368 94,94 224,152 368,152 144,0 274,-58 368,-152 94,-94 152,-224 152,-368 0,-144 -58,-274 -152,-368z"/>
    <path class="fil4" d="M1230 1059l0 0c6,0 11,5 11,11l0 109c0,6 -5,11 -11,11l0 0c-6,0 -11,-5 -11,-11l0 -109c0,-6 5,-11 11,-11zm242 904l0 0c-5,3 -12,1 -15,-4l-55 -95c-3,-5 -1,-12 4,-15l0 0c5,-3 12,-1 15,4l55 95c3,5 1,12 -4,15zm-419 -726l0 0c-5,3 -12,1 -15,-4l-55 -95c-3,-5 -1,-12 4,-15l0 0c5,-3 12,-1 15,4l55 95c3,5 1,12 -4,15zm419 -113l0 0c5,3 7,10 4,15l-55 95c-3,5 -10,7 -15,4l0 0c-5,-3 -7,-10 -4,-15l55 -95c3,-5 10,-7 15,-4zm-419 726l0 0c5,3 7,10 4,15l-55 95c-3,5 -10,7 -15,4l0 0c-5,-3 -7,-10 -4,-15l55 -95c3,-5 10,-7 15,-4zm661 -306l0 0c0,6 -5,11 -11,11l-109 0c-6,0 -11,-5 -11,-11l0 0c0,-6 5,-11 11,-11l109 0c6,0 11,5 11,11zm-838 0l0 0c0,6 -5,11 -11,11l-109 0c-6,0 -11,-5 -11,-11l0 0c0,-6 5,-11 11,-11l109 0c6,0 11,5 11,11zm773 -242l0 0c3,5 1,12 -4,15l-95 55c-5,3 -12,1 -15,-4l0 0c-3,-5 -1,-12 4,-15l95 -55c5,-3 12,-1 15,4zm-726 419l0 0c3,5 1,12 -4,15l-95 55c-5,3 -12,1 -15,-4l0 0c-3,-5 -1,-12 4,-15l95 -55c5,-3 12,-1 15,4zm726 65l0 0c-3,5 -10,7 -15,4l-95 -55c-5,-3 -7,-10 -4,-15l0 0c3,-5 10,-7 15,-4l95 55c5,3 7,10 4,15zm-419 111l0 0c6,0 11,5 11,11l0 109c0,6 -5,11 -11,11l0 0c-6,0 -11,-5 -11,-11l0 -109c0,-6 5,-11 11,-11zm-306 -530l0 0c-3,5 -10,7 -15,4l-95 -55c-5,-3 -7,-10 -4,-15l0 0c3,-5 10,-7 15,-4l95 55c5,3 7,10 4,15z"/>
    <rect class="fil0" x="1096" y="859" width="270" height="101" rx="18" ry="25"/>
    <rect class="fil0" transform="matrix(0.66028 0.472733 -1.04994 1.46648 1584.97 990.772)" width="96" height="26" rx="6" ry="6"/>
    <path class="fil5" d="M1249 1708c22,0 25,-31 37,-56 6,4 60,60 71,70 10,10 18,21 30,18 8,-2 23,-19 29,-25 8,-8 22,-18 10,-33l-28 -28c-1,-1 -2,-2 -3,-3l-36 -36c-4,-4 -12,-11 -14,-16l30 -12c10,-4 20,-9 20,-22 0,-7 -4,-12 -7,-16 -5,-4 -131,-59 -149,-67l-66 -29c-12,-5 -23,-12 -34,0 -11,11 -5,21 0,33l59 133c5,11 10,22 15,34 5,12 10,21 14,33 5,11 9,24 24,24l0 0zm-184 -134c7,0 10,-6 14,-10 7,-7 34,-32 34,-38 0,-6 -6,-15 -17,-4l-33 33c-3,3 -6,5 -7,9 0,4 4,9 8,9l0 0zm-14 -198c0,7 16,19 22,25 9,9 18,22 27,22 4,0 6,-5 8,-8 1,-5 -44,-49 -49,-49 -5,0 -8,4 -8,9l0 0zm-20 91c0,4 0,11 9,11l52 0c13,0 13,-17 1,-17l-56 0c-3,0 -7,4 -7,7zm119 -119l0 56c0,14 17,11 17,-1l0 -52c0,-13 -17,-11 -17,-3zm50 75c0,5 3,9 8,9 8,0 32,-27 38,-34 1,-1 20,-17 4,-22 -4,-1 -7,1 -10,3l-13 14c-6,8 -27,25 -27,29l0 0z"/>
   </g>
   <rect class="fil6" width="2461" height="2461"/>
  </g>
 </g>
</svg>
